<?xml version="1.0" standalone="no"?>
<!DOCTYPE svg PUBLIC "-//W3C//DTD SVG 20010904//EN"
 "http://www.w3.org/TR/2001/REC-SVG-20010904/DTD/svg10.dtd">
<svg version="1.0" xmlns="http://www.w3.org/2000/svg"
 width="480.000000pt" height="480.000000pt" viewBox="0 0 480.000000 480.000000"
 preserveAspectRatio="xMidYMid meet">
<metadata>
Created by potrace 1.11, written by Peter Selinger 2001-2013
</metadata>
<g transform="translate(0.000000,480.000000) scale(0.100000,-0.100000)"
fill="#000000" stroke="none">
<path d="M2125 4785 c-193 -28 -448 -92 -560 -140 -16 -7 -52 -21 -80 -31 -83
-31 -294 -142 -390 -206 -356 -237 -633 -543 -823 -908 -120 -229 -192 -445
-243 -729 -30 -170 -31 -180 -26 -415 4 -259 21 -381 82 -597 143 -508 450
-959 865 -1270 160 -119 375 -243 523 -300 29 -11 61 -24 72 -29 84 -42 350
-107 570 -141 81 -12 474 -11 555 1 36 6 79 13 95 15 473 75 923 297 1277 630
319 300 553 687 672 1110 58 208 78 354 83 599 5 214 3 238 -22 385 -91 531
-299 952 -649 1310 -285 291 -609 493 -986 615 -89 29 -253 70 -325 81 -246
38 -507 46 -690 20z m778 -118 c7 -7 23 -26 37 -42 24 -29 23 -29 -11 3 -39
36 -50 38 -87 17 -15 -8 -103 -49 -197 -91 -93 -42 -192 -87 -220 -99 -88 -40
-199 -91 -232 -105 -40 -18 -47 -50 -19 -89 12 -16 167 -180 346 -365 307
-317 325 -334 332 -309 8 31 -22 68 -218 269 -66 67 -184 190 -264 274 -80 84
-151 159 -157 166 -20 20 -15 28 25 46 40 18 55 25 398 182 127 58 235 106
240 106 5 -1 149 -137 319 -304 l310 -304 -25 -27 c-21 -22 -22 -28 -10 -35 8
-5 22 -10 31 -10 8 0 26 -11 39 -25 13 -14 27 -25 32 -25 4 0 23 22 40 50 18
27 37 50 41 50 12 0 97 -60 97 -68 0 -5 -18 -26 -40 -47 -38 -37 -51 -65 -31
-65 6 0 30 21 54 47 50 53 46 54 133 -26 l48 -45 -74 -68 -74 -69 42 -42 42
-42 68 68 c37 37 72 67 77 66 12 -1 95 -96 95 -109 0 -5 -10 -15 -22 -21 -33
-18 -128 -90 -128 -98 1 -3 16 -24 36 -45 l34 -40 28 21 c15 11 50 36 78 57
l52 36 46 -72 c25 -39 46 -74 46 -77 0 -3 -36 -25 -81 -49 l-80 -43 27 -47
c15 -26 28 -48 29 -50 1 -1 36 15 76 37 41 23 79 41 85 41 12 0 40 -57 32 -65
-2 -3 -35 -17 -73 -33 -66 -27 -95 -52 -61 -52 9 0 46 14 83 30 37 17 70 27
73 23 4 -5 15 -30 25 -58 10 -27 22 -55 27 -62 11 -14 10 -15 -82 -43 -41 -13
-76 -24 -78 -26 -8 -5 33 -104 43 -104 5 1 42 12 80 24 39 13 73 21 77 17 7
-6 38 -117 38 -137 0 -6 -21 -15 -47 -18 -109 -16 -113 -17 -113 -41 0 -12 3
-37 6 -55 l7 -32 51 6 c28 3 68 9 88 12 l36 6 6 -43 c3 -24 7 -60 8 -79 l3
-35 -72 -6 c-76 -7 -97 -14 -87 -30 4 -6 36 -8 85 -3 l79 7 0 -77 c0 -42 0
-79 0 -83 0 -5 -31 -8 -68 -8 l-67 0 3 -37 c5 -70 -13 -39 -26 42 -52 329
-206 714 -397 990 -43 63 -90 132 -104 153 -57 87 -33 24 67 -175 162 -322
260 -563 278 -684 10 -71 -3 -50 -30 48 -27 98 -49 154 -138 358 -113 257
-296 564 -445 750 -86 107 -237 260 -328 332 -136 107 -325 208 -388 208 -66
-1 -167 -82 -167 -133 0 -47 31 -86 167 -209 122 -110 232 -221 316 -316 21
-24 41 -41 44 -39 8 9 -78 183 -136 277 -92 148 -161 238 -197 255 -44 20 -52
35 -19 35 40 0 110 -78 194 -215 267 -432 453 -931 508 -1363 3 -23 9 -45 13
-47 15 -10 43 185 48 330 3 134 1 162 -22 263 -31 138 -104 296 -171 368 -48
51 -54 64 -31 64 19 0 66 -60 112 -145 44 -82 42 -80 50 -73 6 7 -38 162 -63
221 -60 141 -171 305 -224 333 -27 14 -40 44 -19 44 19 0 163 -169 209 -245
86 -142 148 -345 176 -581 36 -292 -8 -631 -115 -881 -36 -82 -86 -173 -96
-173 -5 0 12 44 32 83 10 17 32 73 49 123 l32 91 -18 144 c-66 542 -169 890
-301 1022 -45 44 -85 69 -99 61 -3 -1 -2 -29 2 -61 11 -91 10 -360 -2 -432
-13 -79 -54 -210 -82 -266 -37 -73 -100 -149 -248 -296 -210 -210 -221 -227
-161 -250 103 -40 225 -30 356 26 44 19 81 35 82 35 1 0 0 -9 -3 -20 -10 -37
-86 -111 -147 -143 -53 -27 -71 -31 -136 -31 -61 0 -87 5 -137 28 -34 16 -70
37 -79 47 -42 46 -79 -4 -72 -99 l3 -47 -60 -7 c-100 -13 -241 -90 -398 -220
l-59 -48 -2 -83 c-3 -71 -47 -267 -83 -365 -4 -9 29 16 71 57 133 125 432 306
546 330 28 6 69 11 90 11 28 0 40 4 40 14 0 8 -4 18 -10 21 -18 11 -50 137
-50 195 0 52 -3 61 -27 81 l-28 22 34 -7 c61 -11 72 -29 64 -108 -6 -64 -4
-72 30 -141 20 -39 59 -98 87 -130 49 -55 52 -70 8 -46 -31 17 -31 6 -1 -55
31 -63 34 -64 118 -26 22 10 56 24 75 32 19 8 62 32 95 54 33 21 71 44 84 51
36 20 11 -7 -55 -58 -30 -23 -52 -44 -49 -47 8 -8 217 98 300 152 83 53 206
162 261 230 149 188 226 425 243 746 l6 125 22 -80 c71 -257 72 -691 2 -969
-85 -339 -246 -670 -432 -887 -62 -73 -209 -205 -272 -245 -16 -10 -32 -21
-35 -24 -25 -26 -288 -160 -316 -160 -5 0 -22 -7 -38 -15 -36 -19 -276 -80
-370 -95 -129 -20 -440 -41 -518 -34 -98 8 -101 -5 -10 -35 160 -52 472 -55
687 -6 286 65 553 206 810 428 560 482 875 1098 841 1642 -5 79 -4 96 6 80 19
-32 16 -374 -5 -555 -28 -245 -101 -570 -170 -755 -41 -109 -32 -103 96 65
120 158 188 312 218 495 7 46 13 169 13 287 1 203 1 208 21 201 11 -3 39 -5
63 -4 51 2 57 -8 48 -83 l-7 -53 -45 5 -44 5 0 -57 c0 -31 4 -56 9 -56 5 0 21
-4 34 -9 l25 -10 -18 -83 c-77 -343 -272 -688 -545 -963 -341 -343 -777 -559
-1265 -627 -142 -19 -517 -17 -658 5 -591 92 -1075 384 -1450 876 -13 17 -47
69 -78 117 -39 64 -51 91 -43 98 12 13 17 7 88 -104 142 -221 353 -440 557
-577 89 -61 236 -137 339 -177 114 -43 305 -92 415 -106 107 -13 367 -13 485
0 132 15 326 58 440 98 107 37 327 144 355 172 3 3 32 25 65 50 124 93 303
294 410 460 163 251 276 569 299 840 16 176 17 219 11 290 -4 44 -11 80 -16
80 -5 0 -9 -48 -9 -107 0 -60 -5 -148 -10 -198 -13 -109 -51 -285 -63 -285 -5
0 -6 8 -3 18 23 78 49 378 38 437 l-8 40 -37 -79 c-20 -43 -37 -80 -37 -82 0
-10 -110 -174 -139 -206 -17 -20 -40 -60 -50 -90 -36 -104 -123 -274 -196
-383 -100 -149 -198 -260 -319 -362 -158 -132 -258 -193 -526 -322 -44 -21
-44 -21 -10 -15 58 10 259 92 360 146 97 52 241 146 295 193 187 164 318 332
426 550 47 95 59 129 59 167 0 33 4 48 13 48 8 0 16 -3 20 -6 8 -8 -19 -95
-48 -153 -14 -27 -25 -52 -25 -56 0 -6 -26 -53 -85 -154 -103 -176 -306 -395
-475 -513 -122 -84 -323 -188 -430 -222 -30 -10 -64 -21 -75 -26 -81 -37 -419
-56 -555 -31 -96 18 -215 59 -295 102 -80 44 -81 51 -3 15 106 -49 341 -108
366 -92 5 3 13 56 17 118 24 374 130 611 312 694 74 34 192 40 237 11 22 -15
38 -17 82 -11 30 3 56 10 59 14 8 13 -33 96 -64 129 -33 36 -57 40 -66 11 -7
-23 -25 -24 -75 -6 -35 13 -35 12 -56 -23 -19 -33 -24 -36 -63 -34 -41 2 -43
1 -61 -41 l-19 -42 -51 4 -50 4 -21 -47 c-20 -44 -22 -46 -57 -43 -34 3 -37 1
-47 -35 -13 -44 -28 -57 -72 -57 -29 0 -32 -3 -40 -42 -8 -41 -11 -43 -48 -48
-34 -4 -43 -11 -63 -47 -27 -50 -42 -55 -42 -13 0 17 -7 33 -18 39 -14 8 -15
12 -4 22 14 15 16 69 2 69 -5 0 -15 -9 -22 -20 -19 -29 -28 -24 -28 15 0 57
-28 44 -113 -52 -92 -105 -217 -287 -217 -315 0 -7 91 -71 94 -67 2 2 20 36
40 76 37 75 61 104 46 56 -5 -16 -18 -57 -30 -92 -11 -36 -18 -71 -16 -78 3
-7 0 -13 -5 -13 -15 0 -97 61 -129 95 -14 15 -33 31 -43 37 -60 32 83 -130
187 -212 133 -105 265 -167 409 -195 92 -18 306 -20 410 -4 95 14 271 63 376
105 264 107 561 336 735 569 75 101 85 111 53 55 -88 -153 -250 -324 -437
-461 -101 -75 -336 -201 -425 -229 -22 -7 -44 -16 -50 -20 -16 -10 -82 -28
-191 -50 -82 -16 -129 -19 -250 -16 -82 2 -160 6 -174 9 -98 20 -185 44 -245
68 -47 18 -103 31 -170 38 -143 14 -257 37 -360 73 -139 47 -134 39 -75 113
31 39 48 69 44 78 -3 10 24 54 76 121 45 58 85 108 91 111 5 4 24 -3 43 -14
18 -12 35 -21 38 -21 3 0 25 26 50 57 24 32 84 103 134 158 80 90 93 111 133
209 38 92 49 110 73 118 30 11 42 37 36 84 -3 27 -6 24 -59 -51 -70 -99 -125
-162 -134 -153 -3 3 1 20 9 36 40 78 96 319 96 416 0 69 4 69 -106 -6 -131
-91 -186 -118 -235 -118 -42 0 -48 4 -144 100 -55 54 -99 105 -97 113 1 8 -12
17 -35 23 -31 7 -39 15 -47 44 -12 41 -73 104 -118 123 -58 24 -61 36 -29 104
16 33 32 81 36 106 9 59 22 60 88 4 67 -56 177 -133 177 -125 0 2 -17 22 -37
44 -42 45 -129 191 -120 200 3 4 18 -6 33 -21 l27 -27 69 71 c77 81 87 107 36
89 -18 -6 -46 -21 -63 -33 -47 -35 -95 -57 -111 -51 -16 6 -60 98 -88 183 -12
37 -21 50 -32 46 -29 -11 -13 17 31 53 24 21 43 39 41 41 -1 2 -21 -3 -44 -11
-39 -14 -40 -14 -46 7 -4 18 -9 187 -7 220 2 15 211 -117 211 -133 0 -5 -10
-16 -22 -24 -27 -19 -22 -20 21 -5 30 11 35 8 104 -44 202 -155 340 -330 508
-644 44 -83 58 -99 60 -65 0 9 2 28 4 42 2 14 9 61 15 105 18 125 25 594 11
700 -15 111 -46 225 -77 287 -13 26 -24 50 -24 53 0 2 18 -5 40 -16 34 -18 44
-19 75 -9 39 13 127 71 253 167 45 34 82 61 82 59 0 -3 -174 -160 -206 -186
-10 -8 -45 -35 -77 -60 -67 -52 -67 -60 -13 -144 41 -63 91 -111 106 -101 6 4
23 2 38 -4 21 -9 27 -18 27 -37 -2 -28 -14 -40 -107 -105 -52 -36 -91 -79 -71
-79 10 0 190 133 223 165 l25 24 155 -194 c85 -107 158 -195 162 -195 16 0 7
38 -13 61 -12 13 -79 97 -151 186 -86 108 -134 160 -143 156 -8 -2 -21 2 -30
10 -14 14 -13 17 7 32 22 15 24 14 60 -27 21 -24 38 -46 38 -50 0 -22 31 -2
78 49 56 63 57 53 4 -44 l-34 -63 21 -28 c42 -60 41 -60 140 43 105 110 179
215 218 310 l27 66 -61 61 -60 60 -29 -52 c-34 -62 -43 -53 -14 14 11 26 20
53 20 59 0 7 -45 57 -100 112 l-100 99 -35 -34 c-41 -40 -45 -35 -10 16 24 35
24 38 9 56 -17 18 -45 24 -58 11 -10 -10 -76 -31 -76 -24 0 3 20 15 45 26 25
11 45 23 45 27 0 4 -54 63 -120 131 -75 77 -120 132 -120 145 0 12 -5 24 -12
28 -15 10 -126 7 -198 -5 -51 -8 -70 -7 -59 3 10 10 173 39 252 45 4 1 7 28 7
60 l0 59 -41 7 c-101 17 -314 -26 -497 -101 -48 -20 -94 -38 -102 -42 -12 -5
-13 -3 -3 9 7 9 45 28 84 44 39 15 67 31 62 35 -4 4 -33 16 -63 26 -30 10 -61
23 -68 28 -9 7 -16 5 -23 -5 -20 -31 -79 -138 -79 -143 0 -3 12 -6 27 -6 26 0
23 -3 -24 -35 -29 -19 -55 -35 -59 -35 -11 0 -136 -103 -187 -155 -26 -26 -67
-75 -91 -108 -64 -91 -141 -248 -128 -261 3 -4 33 -4 66 0 94 10 56 -11 -55
-30 l-95 -17 -41 -67 c-173 -283 -233 -609 -169 -919 14 -65 32 -138 40 -162
9 -24 15 -45 14 -46 -2 -1 -115 -5 -251 -9 l-248 -6 3 77 3 78 35 0 c19 0 92
-4 162 -8 l126 -8 4 23 c3 20 8 23 45 20 33 -2 43 1 43 13 0 10 -10 15 -34 15
-23 0 -38 7 -48 21 -12 18 -28 22 -123 30 -61 4 -129 8 -152 8 -39 1 -43 3
-43 25 0 14 5 47 12 75 9 40 15 50 28 46 42 -13 286 -52 291 -47 11 12 28 97
21 103 -4 3 -72 17 -150 29 -91 15 -146 28 -149 36 -5 14 34 143 48 158 8 9
68 -4 114 -24 40 -17 149 -50 153 -45 9 9 22 99 15 106 -5 4 -59 23 -120 44
-62 21 -113 43 -113 50 0 10 27 72 36 84 3 4 89 -34 152 -66 46 -25 72 -29 72
-13 0 6 -47 33 -105 60 l-105 51 24 47 c13 26 32 57 42 70 l19 22 89 -50 c49
-27 92 -50 96 -50 4 0 17 22 28 50 l21 49 -67 38 c-37 21 -75 41 -85 45 -9 4
-17 13 -17 19 0 18 93 138 107 139 7 0 41 -22 78 -50 l65 -49 30 41 c17 22 30
45 30 49 0 4 -27 29 -60 54 -33 25 -60 49 -60 53 0 3 17 23 37 44 l37 38 48
-47 c39 -38 50 -45 60 -34 11 10 3 21 -36 59 l-49 46 49 43 c27 23 55 43 62
43 7 0 24 -12 37 -27 l25 -28 19 25 c39 50 46 69 32 92 -15 23 -19 19 71 70
26 15 48 24 48 19 0 -5 -12 -29 -26 -55 -16 -28 -20 -44 -12 -41 17 7 13 0
147 241 109 197 121 224 101 224 -12 0 -13 10 -2 27 8 13 119 -19 178 -50 39
-21 29 -21 -37 1 -79 27 -109 34 -109 23 0 -5 35 -20 78 -34 42 -14 122 -42
177 -62 85 -31 102 -34 122 -24 16 8 29 9 45 2 24 -10 226 26 283 52 340 151
595 264 655 291 85 38 87 39 103 21z m441 -439 c104 -103 187 -190 184 -194
-5 -4 -517 505 -547 544 -12 15 179 -169 363 -350z m-1663 140 c22 -6 39 -15
39 -19 0 -8 -35 1 -80 19 -34 15 -6 15 41 0z m179 -252 c0 -2 -9 -6 -20 -9
-11 -3 -20 -1 -20 4 0 5 9 9 20 9 11 0 20 -2 20 -4z m-365 -149 c-16 -12 -46
-39 -65 -59 -37 -40 -60 -48 -60 -23 0 14 26 34 110 83 46 27 52 26 15 -1z
m501 -323 c-59 -29 -79 -30 -74 -6 2 11 16 19 43 23 74 11 80 8 31 -17z m-569
-77 c45 -41 126 -171 189 -302 35 -74 64 -140 64 -147 0 -15 -29 23 -30 38 0
12 -94 172 -143 244 -35 50 -163 180 -178 180 -6 0 -8 4 -5 8 9 15 81 0 103
-21z m333 -14 c23 -20 46 -46 52 -57 11 -20 10 -20 -13 -4 -38 27 -111 68
-120 68 -5 0 -9 7 -9 15 0 28 48 16 90 -22z m-915 -226 l-45 -44 0 -110 c0
-183 52 -336 174 -508 l56 -80 -60 65 c-119 128 -189 320 -198 538 -5 137 -5
137 61 164 61 25 62 23 12 -25z m901 -383 c-10 -25 -24 -15 -28 21 -2 20 -2
38 1 41 9 8 33 -47 27 -62z m-936 -329 c7 -60 15 -115 17 -122 4 -10 -10 -12
-52 -10 l-56 2 5 45 c3 25 8 68 11 95 9 81 26 168 38 190 12 22 12 22 37 -200z
m3449 -142 c1 -7 -3 -13 -8 -13 -10 0 -21 47 -12 55 6 6 19 -21 20 -42z
m-3405 -101 c48 -233 182 -557 329 -801 l21 -34 18 54 c11 30 32 110 48 178
16 68 32 126 36 130 6 6 1 -73 -10 -148 -10 -66 -49 -206 -66 -240 l-17 -35
-25 40 c-91 143 -246 454 -304 606 -16 43 -31 78 -34 78 -4 0 -4 -15 -2 -33
l4 -34 -144 -16 c-173 -21 -168 -21 -168 -2 0 10 -10 15 -28 15 -33 0 -263
-30 -272 -35 -3 -2 -12 0 -20 5 -10 6 -16 33 -18 83 l-4 74 253 8 c140 5 287
9 326 9 43 1 72 5 70 11 -1 6 -29 10 -62 10 l-60 0 -2 82 -2 82 49 -6 c38 -4
50 -3 50 8 0 34 18 -14 34 -89z m14 -343 c7 -40 10 -75 7 -78 -10 -9 -190 -53
-345 -85 -41 -8 -117 -26 -169 -40 -52 -15 -96 -25 -97 -23 -2 2 -12 40 -23
86 l-19 82 22 9 c18 7 259 40 295 40 6 0 11 11 11 24 0 23 4 24 118 36 64 6
122 13 127 15 6 2 21 4 35 4 24 1 27 -3 38 -70z m40 -167 c18 -66 14 -71 -83
-102 -38 -13 -74 -26 -80 -30 -5 -4 -28 -13 -50 -20 -40 -13 -163 -58 -288
-107 -58 -23 -70 -25 -78 -12 -12 19 -31 90 -26 96 5 4 64 21 230 65 l78 21
-3 34 c-3 33 0 36 37 49 22 7 78 22 124 33 46 11 86 23 89 26 17 16 37 -5 50
-53z m52 -147 c13 -31 21 -57 19 -59 -11 -9 -241 -116 -249 -116 -6 0 -10 5
-10 10 0 25 -34 18 -126 -26 -121 -57 -183 -84 -193 -84 -4 0 -18 23 -31 51
-29 61 -37 54 130 116 127 47 200 75 335 127 50 19 93 35 96 35 4 1 17 -24 29
-54z m73 -154 c41 -70 50 -56 -93 -147 -73 -46 -106 -62 -115 -54 -8 7 -42 -9
-116 -56 -57 -37 -107 -71 -111 -77 -8 -13 -5 -17 -61 58 -25 33 -43 63 -39
67 4 4 61 32 127 62 93 43 120 60 118 74 -2 14 27 32 120 79 67 33 125 59 128
57 4 -2 22 -30 42 -63z m67 -99 c0 -5 16 -27 35 -49 19 -23 35 -45 35 -50 0
-17 -203 -174 -217 -169 -8 3 -50 -23 -96 -61 -45 -37 -88 -71 -95 -77 -9 -7
-25 3 -57 34 -47 46 -54 60 -32 60 8 0 32 13 53 28 21 15 59 40 84 55 76 45
73 42 59 65 -17 27 -14 30 109 109 93 59 122 72 122 55z m153 -177 c52 -47 55
-56 30 -76 -9 -8 -81 -83 -161 -168 -92 -98 -140 -157 -134 -163 9 -9 69 50
272 265 35 37 67 67 71 67 13 0 99 -63 99 -73 0 -9 -168 -227 -175 -227 -2 0
-11 8 -20 17 -16 16 -20 14 -60 -33 -24 -27 -49 -60 -57 -74 -7 -14 -13 -27
-15 -29 -3 -5 -90 47 -162 97 -64 45 -106 81 -99 86 2 1 39 31 83 66 44 36 82
66 84 67 2 2 -1 14 -8 27 -8 13 -10 29 -6 35 10 18 189 160 200 160 6 0 31
-19 58 -44z"/>
<path d="M2655 4481 c-99 -48 -228 -109 -287 -136 -59 -28 -108 -55 -108 -60
0 -15 21 -35 36 -35 7 0 131 59 276 130 189 94 265 137 271 152 4 12 4 25 0
29 -4 4 -89 -32 -188 -80z"/>
<path d="M2870 4527 c0 -28 325 -355 416 -419 34 -24 84 -58 110 -77 l49 -35
-44 50 c-62 69 -513 504 -523 504 -4 0 -8 -10 -8 -23z"/>
<path d="M2707 4389 c-107 -54 -135 -79 -89 -79 9 0 41 -11 70 -25 l53 -24 9
25 c6 14 10 28 10 32 0 4 23 5 51 3 39 -2 53 -7 56 -21 4 -14 17 -19 61 -22
32 -2 59 -3 61 -1 6 4 -57 72 -113 124 l-51 47 -118 -59z"/>
<path d="M1486 4341 c-9 -14 13 -27 97 -61 71 -28 117 -33 117 -11 0 5 -39 21
-87 36 -49 15 -92 32 -97 36 -13 11 -23 11 -30 0z"/>
<path d="M1434 4303 c-9 -16 -25 -40 -35 -55 -11 -15 -19 -29 -19 -32 0 -3
-16 -33 -36 -66 -35 -60 -39 -85 -10 -61 19 16 136 213 136 229 0 21 -19 13
-36 -15z"/>
<path d="M2495 4279 c-9 -14 -9 -13 55 -34 30 -10 79 -28 109 -41 29 -13 58
-21 63 -18 13 9 -39 62 -84 85 -40 21 -132 26 -143 8z"/>
<path d="M2390 4226 c-75 -40 -63 -51 69 -61 35 -3 102 -10 149 -15 106 -14
130 -1 56 30 -27 12 -56 25 -66 30 -19 10 -130 40 -150 40 -7 0 -33 -11 -58
-24z"/>
<path d="M2150 4123 c1 -31 -18 -11 409 -448 140 -143 258 -261 262 -263 5 -2
9 9 9 25 0 31 -3 34 -330 375 -237 246 -330 338 -341 338 -5 0 -9 -12 -9 -27z"/>
<path d="M2420 4112 c0 -4 38 -45 85 -92 81 -81 85 -84 100 -65 39 49 75 104
75 114 0 12 -45 26 -124 40 -70 13 -136 14 -136 3z"/>
<path d="M2666 3971 l-59 -60 71 -73 c80 -81 83 -81 102 5 17 83 13 129 -15
160 -14 15 -29 27 -33 27 -4 0 -34 -27 -66 -59z"/>
<path d="M2810 3888 c0 -13 -8 -50 -18 -83 l-18 -60 45 -52 c25 -29 50 -53 57
-53 7 0 15 22 19 53 3 28 9 60 11 69 3 10 -10 30 -36 54 -29 27 -40 45 -40 66
0 15 -4 28 -10 28 -5 0 -10 -10 -10 -22z"/>
<path d="M2990 3684 c-97 -64 -105 -71 -115 -101 -8 -29 15 -31 53 -4 15 10
61 40 102 67 41 26 76 49 78 50 5 3 -22 44 -28 44 -3 0 -43 -25 -90 -56z"/>
<path d="M3015 3564 c-158 -104 -165 -111 -165 -142 0 -22 2 -23 19 -11 11 8
85 59 165 114 81 54 145 104 143 110 -8 24 -40 11 -162 -71z"/>
<path d="M3080 3424 c0 -148 -28 -324 -51 -324 -5 0 -5 10 -1 23 5 12 9 42 10
67 l2 45 -19 -63 c-31 -104 -42 -95 -16 13 17 71 20 271 4 280 -6 4 -28 -7
-49 -24 -21 -17 -43 -31 -48 -31 -10 0 -22 -28 -42 -95 -7 -22 -16 -44 -21
-49 -5 -6 -9 -16 -9 -24 0 -23 -96 -217 -141 -284 -23 -35 -64 -86 -92 -115
l-50 -52 27 -36 c19 -25 26 -45 24 -68 -3 -27 -17 -42 -98 -105 -52 -40 -110
-83 -127 -95 -18 -12 -33 -27 -33 -33 0 -6 17 -39 37 -73 29 -48 39 -59 45
-47 5 9 12 16 17 16 8 0 55 -115 67 -163 6 -27 7 -26 38 33 32 63 130 171 178
196 64 33 237 259 293 382 14 31 30 65 35 74 5 9 21 63 36 120 32 127 36 297
10 423 -9 44 -19 81 -22 84 -2 2 -4 -31 -4 -75z m-110 -415 c-36 -94 -74 -164
-92 -167 -26 -5 -22 10 15 65 18 27 46 80 63 118 33 79 45 66 14 -16z"/>
<path d="M2771 3273 c-54 -109 -133 -224 -223 -325 l-59 -67 22 -31 c13 -16
28 -30 34 -30 11 0 72 72 138 161 66 91 178 353 162 380 -13 21 -27 4 -74 -88z"/>
<path d="M1974 3203 c8 -31 20 -87 22 -103 0 -8 2 -25 3 -37 1 -30 15 -29 50
3 l30 26 -51 64 c-52 67 -63 76 -54 47z"/>
<path d="M2130 3091 c0 -13 29 -35 37 -28 7 8 -15 37 -28 37 -5 0 -9 -4 -9 -9z"/>
<path d="M2066 3061 c-31 -21 -52 -49 -42 -58 3 -3 11 -1 18 5 7 5 26 12 42
14 36 4 58 34 36 48 -20 13 -21 13 -54 -9z"/>
<path d="M2240 3023 c-14 -9 -30 -22 -36 -28 -6 -5 -37 -28 -68 -50 -107 -75
-116 -84 -116 -122 0 -29 19 -58 118 -184 64 -82 117 -154 117 -161 0 -19 -87
-58 -136 -61 -24 -1 -60 1 -80 6 -32 6 -37 5 -42 -13 -7 -29 22 -41 98 -42 78
0 115 16 240 106 50 36 114 82 143 103 29 21 59 44 67 51 19 17 19 46 2 64 -7
7 -29 33 -48 58 -44 58 -231 290 -233 290 -1 0 -13 -8 -26 -17z m39 -62 c11
-20 1 -32 -47 -59 -18 -10 -27 -10 -38 -1 -21 17 -18 26 23 54 45 30 49 30 62
6z m141 -172 l104 -131 -34 -29 c-19 -16 -38 -29 -42 -29 -7 0 -218 255 -218
264 0 6 72 56 80 56 3 -1 52 -60 110 -131z m-269 85 c12 -14 9 -20 -16 -40
-34 -27 -46 -29 -63 -12 -18 18 -15 24 21 47 39 25 41 25 58 5z m144 -171 c58
-70 105 -130 105 -133 0 -9 -69 -52 -79 -48 -10 3 -211 252 -211 261 0 6 62
47 72 47 5 0 55 -57 113 -127z"/>
<path d="M2272 2867 c-8 -10 6 -33 60 -95 67 -79 71 -82 89 -66 18 16 18 17
-4 44 -12 15 -40 50 -62 78 -40 52 -64 63 -83 39z"/>
<path d="M2150 2786 c-9 -12 1 -30 55 -95 37 -45 70 -81 74 -81 4 0 16 6 26
14 21 15 22 14 -60 114 -51 62 -73 73 -95 48z"/>
<path d="M2040 2985 c-17 -18 -19 -25 -9 -25 26 0 55 27 43 39 -7 8 -17 4 -34
-14z"/>
<path d="M2016 2585 c-4 -70 -5 -130 -2 -133 24 -23 196 -6 196 20 0 5 -37 55
-82 111 -46 55 -88 108 -94 116 -8 10 -13 -18 -18 -114z"/>
<path d="M3901 2394 c0 -11 3 -14 6 -6 3 7 2 16 -1 19 -3 4 -6 -2 -5 -13z"/>
<path d="M1996 2338 c-3 -7 -7 -38 -11 -68 -7 -68 -35 -170 -45 -170 -5 0 -15
19 -22 42 -20 59 -43 64 -33 7 17 -95 4 -364 -22 -468 -6 -23 -5 -25 10 -12
25 20 99 126 143 206 74 131 132 297 149 420 l6 50 -86 3 c-62 2 -87 -1 -89
-10z"/>
<path d="M2643 2226 c2 -6 36 -28 76 -48 90 -47 144 -50 217 -13 55 28 100 63
91 71 -3 3 -25 0 -48 -6 -101 -27 -203 -30 -287 -7 -36 10 -52 11 -49 3z"/>
<path d="M3490 1768 c-64 -54 -210 -147 -288 -183 -42 -20 -85 -41 -95 -46
-21 -11 -171 -49 -209 -53 -15 -1 -30 -5 -33 -8 -3 -3 8 -57 24 -120 16 -63
35 -162 42 -221 6 -59 15 -107 18 -107 4 0 52 38 107 84 180 151 332 325 400
459 35 69 76 185 72 207 -3 16 -7 15 -38 -12z"/>
<path d="M1932 1608 c-10 -14 -53 -106 -80 -171 -13 -33 -13 -40 -1 -48 8 -5
17 -9 20 -9 13 0 80 90 74 100 -3 5 5 29 19 51 20 34 22 46 14 65 -12 26 -30
31 -46 12z"/>
<path d="M4109 1498 c-69 -135 -274 -404 -457 -597 -213 -225 -498 -429 -797
-571 -97 -46 -101 -48 -94 -54 9 -9 238 43 328 75 206 72 513 252 644 378 180
173 313 382 370 586 28 100 48 225 35 225 -4 0 -17 -19 -29 -42z"/>
<path d="M2732 1463 l-33 -4 24 -32 c36 -48 126 -226 133 -264 11 -56 24 -47
24 16 0 81 -18 206 -37 253 -16 41 -21 42 -111 31z"/>
<path d="M2646 1058 c-14 -18 -21 -35 -16 -36 6 -2 19 7 29 19 l19 24 7 -60
c9 -88 15 -115 26 -115 11 0 11 -4 -1 90 -16 123 -22 131 -64 78z"/>
<path d="M2492 1073 c-7 -3 -19 -17 -27 -32 -12 -24 -12 -37 -1 -84 15 -66 30
-87 60 -87 19 0 19 2 -8 23 -24 20 -30 33 -34 81 -4 45 -1 61 13 76 19 21 18
30 -3 23z"/>
<path d="M2530 1075 c0 -3 11 -16 24 -28 34 -31 44 -119 16 -147 -11 -11 -16
-22 -11 -24 4 -3 18 5 31 19 20 21 22 30 16 79 -7 56 -36 106 -62 106 -8 0
-14 -2 -14 -5z"/>
<path d="M2162 937 c-21 -23 -22 -25 -7 -61 15 -35 15 -38 -5 -63 -25 -32 -25
-41 0 -73 11 -14 20 -33 20 -42 0 -15 10 -18 60 -18 l60 0 0 33 c0 17 -5 39
-10 47 -8 12 -10 10 -10 -8 0 -17 -5 -23 -17 -20 -11 2 -29 33 -50 85 -28 67
-32 87 -23 103 18 33 7 43 -18 17z"/>
</g>
</svg>
